# xmcd
#
# Track frame offsets:
#	150
#	12911
#	23052
#	37684
#	48907
#	61901
#	75009
#	88691
#	102845
#	115120
#	129031
#	140601
#	157022
#	172177
#	185349
#	198069
#	211766
#	226382
#
# Disc length: 3154 seconds
#
# Revision: 1
# Processed by: cddbd v1.4PL0 Copyright (c) Steve Scherf et al.
# Submitted via: audiograbber 1.80.04
#
DISCID=d20c5012
DTITLE=George Strait - Strait Out Of The Box Disc 1
DYEAR=1995
DGENRE=Country
TTITLE0=I Just Can't Go On Dying Like This
TTITLE1=(That Don't Change) The Way I Feel About You
TTITLE2=I Don't Want To Talk It Over Anymore
TTITLE3=Unwound
TTITLE4=Blame It On Mexico
TTITLE5=Her Goodbye Hit Me In The Heart
TTITLE6=If Your Thinking You Want
TTITLE7=Any Old Love Won't Do
TTITLE8=Fool Hearted Memory
TTITLE9=Marina Del Ray
TTITLE10=I Can't See Texas From Her
TTITLE11=Heartbroke
TTITLE12=What Would Your Memories Do
TTITLE13=Amarillo By Morning
TTITLE14=I Thought I Heard You Calling My Name
TTITLE15=A Fire I Can't Put Out
TTITLE16=You Look So Good In Love
TTITLE17=80 Proof Bottle Of Tear Stopper
EXTD=
EXTT0=
EXTT1=
EXTT2=
EXTT3=
EXTT4=
EXTT5=
EXTT6=
EXTT7=
EXTT8=
EXTT9=
EXTT10=
EXTT11=
EXTT12=
EXTT13=
EXTT14=
EXTT15=
EXTT16=
EXTT17=
PLAYORDER=
